<svg xmlns="http://www.w3.org/2000/svg" width="161.1" height="22.74" viewBox="0 0 161.1 22.74">
  <path id="Path_1" data-name="Path 1" d="M18.81-.69l-5.22-18.3-.27-.75a36.9,36.9,0,0,1-7.05,0v.78a4.066,4.066,0,0,0,.6.06L1.89-1.68A1.413,1.413,0,0,1,.87-.72c-.3.03-.63.06-.93.12V.18a17.115,17.115,0,0,1,5.25,0V-.6c-.45-.06-.93-.12-1.38-.15h.06c-.84-.06-.93-.69-.75-1.35l1.5-5.31h5.52L12-.72c-.54.03-1.02.06-1.5.12V.18a58.092,58.092,0,0,1,9.42,0V-.6ZM4.86-8.28l2.55-9,2.49,9ZM.69-.69a1.021,1.021,0,0,1-.3.03Zm27.33,0V-21.54h-.54c-2.16,2.07-4.32,2.04-6.45,1.83v.78a8.484,8.484,0,0,0,1.23.09V-.69c-.42,0-.81.06-1.23.09V.18a47.012,47.012,0,0,1,8.22,0V-.6ZM45.96-8.04v-.33c-.36-4.23-2.49-6.96-6.75-7.11h-.39c-4.68.21-7.59,3.24-7.59,7.98,0,4.83,3.06,7.86,7.98,7.86a6.435,6.435,0,0,0,6.3-4.38l-.42-.27S43.56-.78,40.05-.78c-2.55,0-2.97-1.32-2.97-6.72v-.54Zm-6.9-6.75c1.26.09,1.65,1.23,1.71,6.03H37.08C37.17-13.56,37.71-14.7,39.06-14.79ZM61.56-.66,56.64-9.15,60-13.98a18.553,18.553,0,0,0,1.86-.21v-.78a16.56,16.56,0,0,1-2.43.18A16.56,16.56,0,0,1,57-14.97v.78q.945.135,1.8.18l-2.73,3.9L53.76-14.1l1.11-.09v-.78c-1.47.09-2.97.15-4.41.15-1.47,0-2.97-.03-4.41-.15v.75l1.14.09,4.83,8.31L48.39-.81c-.69.03-1.35.12-2.01.21V.18a16.492,16.492,0,0,1,4.86,0V-.6a16.86,16.86,0,0,0-1.68-.18l2.97-4.11,2.46,4.2L53.88-.6V.18C55.35.09,56.85.03,58.29.03c1.47,0,2.97.03,4.41.15V-.57Zm1.71-3.36c0,2.91,1.77,4.38,4.89,4.38,2.31,0,3.36-1.02,3.78-1.71C72.54-.18,73.77.36,76.05.36A3.735,3.735,0,0,0,80.01-2.4h-.39a1.252,1.252,0,0,1-1.2.9c-.72,0-1.11-.51-1.11-1.47V-9.99c0-3.09-1.89-5.49-7.02-5.49-3.33,0-5.94,1.38-5.94,3.63a2.263,2.263,0,0,0,2.28,2.37,2.43,2.43,0,0,0,2.52-2.37,2.75,2.75,0,0,0-1.53-2.13s.45-.96,2.13-.96c1.62,0,1.8.96,1.8,1.95v5.31a6.615,6.615,0,0,0-2.91-.66C65.37-8.34,63.27-6.72,63.27-4.02Zm5.43-.21c0-1.74.87-3,2.67-3h.18V-3.6a7.06,7.06,0,0,0,.24,1.89,1.372,1.372,0,0,1-.99.39C69.48-1.32,68.7-2.4,68.7-4.23ZM97.92-.72v-9.51c0-3.45-1.65-5.28-4.5-5.28a6.812,6.812,0,0,0-5.4,2.82v-2.67h-.54a14,14,0,0,1-4.8.69c-.54,0-1.11,0-1.65-.03v.78a8.484,8.484,0,0,0,1.23.09V-.69l-1.2.09V.18a47.012,47.012,0,0,1,8.22,0V-.6c-.42-.03-.84-.09-1.26-.09v-11.4a3.581,3.581,0,0,1,2.55-1.26,1.459,1.459,0,0,1,1.56,1.65V-.69L90.99-.6V.18a47.012,47.012,0,0,1,8.22,0V-.6C98.79-.63,98.34-.69,97.92-.72Zm17.64.03V-21.54h-.54c-2.16,2.07-4.32,2.04-6.45,1.83v.78a8.484,8.484,0,0,0,1.23.09v5.37a5.746,5.746,0,0,0-4.05-2.01c-3.63,0-5.76,3.3-5.79,7.89v.06c.03,4.59,2.16,7.89,5.79,7.89a5.746,5.746,0,0,0,4.05-2.01V.18a28.98,28.98,0,0,1,6.45,0V-.6Zm-7.62-.63c-1.65,0-2.04-2.13-2.04-6.24s.39-6.24,2.04-6.24,1.86,1.92,1.86,1.92v8.64S109.59-1.32,107.94-1.32Zm21.99-14.16c-2.4,0-3.66,2.04-4.14,3v-2.88h-.54a16.984,16.984,0,0,1-6.45.66v.78a8.484,8.484,0,0,0,1.23.09l.03,6.72V-.72c-.42.03-.81.06-1.23.12V.18c1.38-.12,2.76-.18,4.11-.18,1.38,0,2.76.06,4.11.18V-.6c-.42-.03-.81-.09-1.23-.12v-9.72c.27-1.2.81-3.03,1.47-3.03.39,0,.42.21.42.21a4.027,4.027,0,0,0-.03.63,2.707,2.707,0,0,0,2.7,2.85,2.744,2.744,0,0,0,2.79-2.85C133.17-14.34,131.91-15.48,129.93-15.48Zm8.25-.9a3.028,3.028,0,0,0,3.06-3.03,3,3,0,0,0-3.06-2.97,2.978,2.978,0,0,0-3.06,2.97A3.01,3.01,0,0,0,138.18-16.38ZM141.24-.69V-15.36h-.54a16.984,16.984,0,0,1-6.45.66v.78a8.484,8.484,0,0,0,1.23.09V-.69c-.42,0-.81.06-1.23.09V.18a47.012,47.012,0,0,1,8.22,0V-.6Zm3.06-3.33c0,2.91,1.77,4.38,4.89,4.38,2.31,0,3.36-1.02,3.78-1.71.6,1.17,1.83,1.71,4.11,1.71a3.735,3.735,0,0,0,3.96-2.76h-.39a1.252,1.252,0,0,1-1.2.9c-.72,0-1.11-.51-1.11-1.47V-9.99c0-3.09-1.89-5.49-7.02-5.49-3.33,0-5.94,1.38-5.94,3.63a2.263,2.263,0,0,0,2.28,2.37,2.43,2.43,0,0,0,2.52-2.37,2.75,2.75,0,0,0-1.53-2.13s.45-.96,2.13-.96c1.62,0,1.8.96,1.8,1.95v5.31a6.615,6.615,0,0,0-2.91-.66C146.4-8.34,144.3-6.72,144.3-4.02Zm5.43-.21c0-1.74.87-3,2.67-3h.18V-3.6a7.06,7.06,0,0,0,.24,1.89,1.372,1.372,0,0,1-.99.39C150.51-1.32,149.73-2.4,149.73-4.23Z" transform="translate(0.06 22.38)" fill="#e75b4e"/>
</svg>
